<svg width="122" height="105" viewBox="0 0 122 105" fill="none" xmlns="http://www.w3.org/2000/svg">
<rect x="14" width="54" height="105" fill="black"/>
<rect x="82" y="86" width="55" height="33" transform="rotate(-90 82 86)" fill="black"/>
<rect x="75" y="105" width="14" height="40" transform="rotate(-90 75 105)" fill="black"/>
<rect x="14" y="7" width="54" height="14" fill="white"/>
<rect x="82" y="38" width="33" height="14" fill="white"/>
<rect x="101" y="91" width="31" height="14" transform="rotate(-90 101 91)" fill="white"/>
<rect x="82" y="69" width="31" height="14" transform="rotate(-90 82 69)" fill="white"/>
<rect x="82" y="60" width="33" height="9" fill="white"/>
<rect x="82" y="77" width="33" height="14" fill="white"/>
<rect x="14" y="77" width="54" height="14" fill="white"/>
<rect x="14" y="79" width="61" height="14" transform="rotate(-90 14 79)" fill="white"/>
<rect x="14" y="84" width="7" height="14" transform="rotate(-90 14 84)" fill="white"/>
<rect x="54" y="78" width="59" height="14" transform="rotate(-90 54 78)" fill="white"/>
<rect width="14" height="105" fill="black"/>
<rect x="115" y="31" width="7" height="74" fill="black"/>
<rect x="68" y="33" width="7" height="72" fill="black"/>
<rect x="75" y="31" width="7" height="72" fill="black"/>
<rect x="68" width="7" height="33" fill="black"/>
</svg>
